<?xml version="1.0" encoding="UTF-8"?>
<!DOCTYPE svg PUBLIC "-//W3C//DTD SVG 1.1//EN" "http://www.w3.org/Graphics/SVG/1.1/DTD/svg11.dtd">
<!-- Creator: CorelDRAW X7 -->
<svg xmlns="http://www.w3.org/2000/svg" xml:space="preserve" width="34.3996mm" height="34.5166mm" version="1.1" style="shape-rendering:geometricPrecision; text-rendering:geometricPrecision; image-rendering:optimizeQuality; fill-rule:evenodd; clip-rule:evenodd"
viewBox="0 0 84 84"
 xmlns:xlink="http://www.w3.org/1999/xlink">
 <defs>
  <style type="text/css">
   <![CDATA[
    .fil5 {fill:#00ADCF}
    .fil7 {fill:#126099}
    .fil8 {fill:#3E8CC7}
    .fil6 {fill:#58D7F0}
    .fil4 {fill:#5E3825}
    .fil3 {fill:#75462E}
    .fil1 {fill:#D1403F}
    .fil0 {fill:#E24C4B}
    .fil2 {fill:white}
   ]]>
  </style>
 </defs>
 <g id="Camada_x0020_1">
  <metadata id="CorelCorpID_0Corel-Layer"/>
  <g id="_2393740861056">
   <g>
    <circle class="fil0" cx="60" cy="47" r="23"/>
    <path class="fil1" d="M84 47c0,13 -11,23 -24,23 -7,0 -14,-3 -18,-8 4,3 9,5 15,5 13,0 23,-11 23,-24 0,-5 -2,-10 -5,-14 5,4 9,11 9,18z"/>
    <g>
     <path class="fil2" d="M60 57c0,0 -1,-1 -1,-2l0 -1c0,-1 1,-2 2,-3 4,0 7,-3 7,-7 0,-4 -3,-8 -7,-8 -3,0 -4,1 -6,2 -1,2 -2,4 -2,6 0,1 -1,2 -2,2 -1,0 -1,-1 -1,-2 0,-3 1,-6 3,-8 2,-2 5,-3 7,-3 0,0 1,0 1,0 5,0 10,5 10,11 0,5 -4,10 -9,11l0 0c0,1 -1,2 -2,2z"/>
     <path class="fil2" d="M60 63c-1,0 -2,-1 -2,-2 0,-1 1,-2 2,-2 2,0 2,1 2,2 0,1 0,2 -2,2z"/>
    </g>
   </g>
   <g>
    <rect class="fil3" x="14" y="4" width="2.8955" height="15.9253"/>
    <rect class="fil3" x="26" y="4" width="2.8955" height="15.9253"/>
   </g>
   <g>
    <rect class="fil4" x="14" y="4" width="2.8955" height="4.34335"/>
    <rect class="fil4" x="26" y="4" width="2.8955" height="4.34335"/>
   </g>
   <g>
    <path class="fil5" d="M13 0l17 0c2,0 3,1 3,3l0 0c0,1 -1,3 -3,3l-17 0c-2,0 -3,-2 -3,-3l0 0c0,-2 1,-3 3,-3z"/>
    <path class="fil5" d="M6 19l32 0c3,0 5,2 5,6l0 46c0,3 -2,6 -5,6l-32 0c-3,0 -6,-3 -6,-6l0 -46c0,-4 3,-6 6,-6z"/>
   </g>
   <g>
    <path class="fil6" d="M39 19c-6,32 -27,46 -39,52l0 0c0,3 3,6 6,6l32 0c3,0 5,-3 5,-6l0 -46c0,-3 -1,-5 -4,-6z"/>
    <circle class="fil6" cx="5" cy="80" r="4"/>
   </g>
   <g>
    <rect class="fil7" x="16" y="26" width="2.8955" height="41.9852"/>
    <rect class="fil7" x="7" y="26" width="2.8955" height="41.9852"/>
    <rect class="fil7" x="25" y="26" width="2.8955" height="41.9852"/>
    <rect class="fil7" x="33" y="26" width="2.8955" height="41.9852"/>
   </g>
   <circle class="fil8" cx="38" cy="80" r="4"/>
  </g>
 </g>
</svg>
