<?xml version="1.0" encoding="UTF-8"?>
<!DOCTYPE svg PUBLIC "-//W3C//DTD SVG 1.1//EN" "http://www.w3.org/Graphics/SVG/1.1/DTD/svg11.dtd">
<!-- Creator: CorelDRAW X7 -->
<svg xmlns="http://www.w3.org/2000/svg" xml:space="preserve" width="48.2242mm" height="49.048mm" version="1.1" style="shape-rendering:geometricPrecision; text-rendering:geometricPrecision; image-rendering:optimizeQuality; fill-rule:evenodd; clip-rule:evenodd"
viewBox="0 0 171 174"
 xmlns:xlink="http://www.w3.org/1999/xlink">
 <defs>
  <style type="text/css">
   <![CDATA[
    .fil0 {fill:#58D7F0}
    .fil2 {fill:#66757F}
    .fil1 {fill:#CCD6DD}
    .fil3 {fill:#E24C4B}
   ]]>
  </style>
 </defs>
 <g id="Camada_x0020_1">
  <metadata id="CorelCorpID_0Corel-Layer"/>
  <g id="_2393804765168">
   <g>
    <path class="fil0" d="M10 26c3,3 17,20 17,20 0,0 -14,17 -17,20 -3,3 -7,0 -7,-3 0,-4 4,-17 4,-17 0,0 -4,-14 -4,-17 0,-3 4,-7 7,-3z"/>
    <path class="fil0" d="M40 2c5,5 40,44 40,44 0,0 -35,38 -40,43 -5,5 -11,2 -6,-6 5,-9 20,-37 20,-37 0,0 -16,-31 -20,-37 -6,-8 1,-12 6,-7z"/>
   </g>
   <path class="fil1" d="M84 36c6,0 16,6 16,10 0,3 -10,10 -16,10 -7,0 -62,-2 -62,-2 0,0 -19,-3 -19,-8 0,-5 19,-9 19,-9 0,0 55,-1 62,-1z"/>
   <g>
    <path class="fil2" d="M30 46c0,0 0,1 -15,1 -15,0 -15,-1 -15,-1 0,0 0,-2 15,-2 15,0 15,2 15,2z"/>
    <path class="fil2" d="M85 41c3,3 3,7 0,10l2 1c0,0 1,-1 2,-1 2,-3 2,-7 0,-10 -1,-1 -2,-1 -2,-2l-2 2z"/>
   </g>
  </g>
  <g id="_2393804764304">
   <g>
    <path class="fil0" d="M80 108c4,3 17,20 17,20 0,0 -13,16 -17,20 -3,3 -6,0 -6,-4 0,-3 3,-16 3,-16 0,0 -3,-14 -3,-17 0,-3 3,-7 6,-3z"/>
    <path class="fil0" d="M110 84c5,5 41,44 41,44 0,0 -36,38 -41,43 -5,5 -11,2 -6,-6 5,-9 20,-37 20,-37 0,0 -16,-31 -20,-37 -5,-9 1,-12 6,-7z"/>
   </g>
   <path class="fil1" d="M154 118c7,0 17,6 17,10 0,3 -10,10 -17,10 -7,0 -62,-2 -62,-2 0,0 -18,-3 -18,-8 0,-5 18,-9 18,-9 0,0 55,-1 62,-1z"/>
   <g>
    <path class="fil2" d="M100 128c0,0 0,1 -15,1 -15,0 -15,-1 -15,-1 0,0 0,-2 15,-2 15,0 15,2 15,2z"/>
    <path class="fil2" d="M156 123c2,2 2,7 0,10l1 1c1,0 1,-1 2,-1 3,-3 3,-8 0,-10 -1,-1 -1,-1 -2,-2l-1 2z"/>
   </g>
  </g>
  <path class="fil3" d="M56 93l12 0 -4 -4 5 -5 -5 -4 -8 0 0 13zm17 -9l-5 5 5 4 8 0 0 -13 -12 0 4 4z"/>
  <g id="_2393804769136">
   <path class="fil3" d="M95 85l-17 -12c0,0 -1,0 -1,0 0,0 0,1 0,1l0 24c0,0 0,1 0,1 0,0 0,0 1,0 0,0 0,0 0,0l17 -13c1,0 1,0 1,0 0,0 0,0 -1,-1z"/>
   <g>
   </g>
   <g>
   </g>
   <g>
   </g>
   <g>
   </g>
   <g>
   </g>
   <g>
   </g>
   <g>
   </g>
   <g>
   </g>
   <g>
   </g>
   <g>
   </g>
   <g>
   </g>
   <g>
   </g>
   <g>
   </g>
   <g>
   </g>
   <g>
   </g>
  </g>
 </g>
</svg>
