<?xml version="1.0" encoding="UTF-8"?>
<!DOCTYPE svg PUBLIC "-//W3C//DTD SVG 1.1//EN" "http://www.w3.org/Graphics/SVG/1.1/DTD/svg11.dtd">
<!-- Creator: CorelDRAW X7 -->
<svg xmlns="http://www.w3.org/2000/svg" xml:space="preserve" width="37.5686mm" height="34.7629mm" version="1.1" style="shape-rendering:geometricPrecision; text-rendering:geometricPrecision; image-rendering:optimizeQuality; fill-rule:evenodd; clip-rule:evenodd"
viewBox="0 0 108 100"
 xmlns:xlink="http://www.w3.org/1999/xlink">
 <defs>
  <style type="text/css">
   <![CDATA[
    .fil5 {fill:#00ADCF}
    .fil2 {fill:#293939}
    .fil7 {fill:#2EC7E6}
    .fil3 {fill:#384949}
    .fil8 {fill:#3E5959}
    .fil4 {fill:#3EC5E0}
    .fil9 {fill:#4A696F}
    .fil6 {fill:#58D7F0}
    .fil1 {fill:#FF4949}
    .fil0 {fill:#FF6C6C}
   ]]>
  </style>
 </defs>
 <g id="Camada_x0020_1">
  <metadata id="CorelCorpID_0Corel-Layer"/>
  <g id="_2393740864992">
   <path class="fil0" d="M100 53c-6,-5 -13,-8 -20,-8 -7,0 -14,3 -19,8 -11,11 -11,28 0,38 5,6 12,9 19,9 7,0 14,-3 20,-9 10,-10 10,-27 0,-38zm-20 40c-5,0 -10,-2 -15,-6 -7,-7 -8,-19 -2,-27l17 17 12 12c-3,3 -8,4 -12,4l0 0zm17 -9l-17 -17 -12 -12c4,-2 8,-4 12,-4 6,0 11,2 15,6 7,8 8,19 2,27l0 0zm0 0z"/>
   <path class="fil1" d="M95 57c7,8 8,19 2,27l-17 -17 0 10 12 12c-3,3 -8,4 -12,4l0 7c7,0 14,-3 20,-9 10,-10 10,-27 0,-38 -6,-5 -13,-8 -20,-8l0 6c6,0 11,2 15,6l0 0zm0 0z"/>
  </g>
  <g id="_2393740867936">
   <path class="fil2" d="M38 69l0 20 -6 0 0 -25c3,0 6,2 6,5zm0 0z"/>
   <path class="fil3" d="M27 69l0 20 5 0 0 -25c-3,0 -5,2 -5,5zm0 0z"/>
   <path class="fil4" d="M54 11l0 32 -22 18 -21 -18 0 -32c0,-6 5,-11 11,-11l21 0c6,0 11,5 11,11l0 0zm0 0z"/>
   <path class="fil5" d="M54 11l0 32 -22 18 0 -61 11 0c6,0 11,5 11,11l0 0zm0 0z"/>
   <path class="fil6" d="M60 48l0 21c0,3 -3,6 -6,6l-42 0c-3,0 -6,-3 -6,-6l0 -20c0,-4 3,-6 6,-6l42 0c3,0 6,2 6,5l0 0zm0 0z"/>
   <path class="fil7" d="M32 75l0 -32 21 0c3,0 5,2 5,5l0 21c0,3 -2,6 -5,6l-21 0z"/>
   <g>
    <path class="fil8" d="M65 94c0,3 -3,6 -6,6l-27 0 0 -11 27 0c3,0 6,2 6,5l0 0z"/>
    <path class="fil9" d="M32 100l-27 0c-3,0 -5,-3 -5,-6 0,-3 2,-5 5,-5l27 0 0 11z"/>
   </g>
  </g>
 </g>
</svg>
