<?xml version="1.0" encoding="UTF-8"?>
<!DOCTYPE svg PUBLIC "-//W3C//DTD SVG 1.1//EN" "http://www.w3.org/Graphics/SVG/1.1/DTD/svg11.dtd">
<!-- Creator: CorelDRAW X7 -->
<svg xmlns="http://www.w3.org/2000/svg" xml:space="preserve" width="41.8931mm" height="35.8247mm" version="1.1" style="shape-rendering:geometricPrecision; text-rendering:geometricPrecision; image-rendering:optimizeQuality; fill-rule:evenodd; clip-rule:evenodd"
viewBox="0 0 147 125"
 xmlns:xlink="http://www.w3.org/1999/xlink">
 <defs>
  <style type="text/css">
   <![CDATA[
    .fil7 {fill:#3E5959}
    .fil5 {fill:#4A696F}
    .fil0 {fill:#58D7F0}
    .fil2 {fill:#66757F}
    .fil4 {fill:#C6E2E7}
    .fil1 {fill:#CCD6DD}
    .fil3 {fill:#DEECF1}
    .fil8 {fill:#E63950}
    .fil6 {fill:#EC5569}
   ]]>
  </style>
 </defs>
 <g id="Camada_x0020_1">
  <metadata id="CorelCorpID_0Corel-Layer"/>
  <g id="_2393628457216">
   <g>
    <path class="fil0" d="M10 87c7,-1 36,-3 36,-3 0,0 9,29 10,35 1,7 -6,8 -9,5 -4,-3 -17,-17 -17,-17 0,0 -18,-7 -21,-10 -4,-2 -5,-9 1,-10z"/>
    <path class="fil0" d="M8 35c9,-2 81,-12 81,-12 0,0 15,71 17,81 2,9 -6,14 -12,2 -6,-12 -26,-52 -26,-52 0,0 -48,-6 -58,-7 -14,-1 -12,-11 -2,-12z"/>
   </g>
   <path class="fil1" d="M80 12c5,-8 21,-14 25,-11 4,2 3,19 -2,27 -5,7 -51,69 -51,69 0,0 -19,18 -24,14 -6,-4 5,-28 5,-28 0,0 42,-64 47,-71z"/>
   <g>
    <path class="fil2" d="M49 80c0,0 2,2 -10,19 -12,17 -14,16 -14,16 0,0 -2,-2 10,-19 12,-17 14,-16 14,-16z"/>
    <path class="fil2" d="M87 14c5,-1 11,2 12,8l2 -1c0,-1 0,-2 0,-3 -1,-5 -6,-9 -11,-8 -1,0 -2,1 -3,1l0 3z"/>
   </g>
  </g>
  <g id="_2393628460352">
   <path class="fil3" d="M142 92c0,15 -13,28 -29,28 -16,0 -28,-13 -28,-28 0,-16 12,-29 28,-29 16,0 29,13 29,29zm0 0z"/>
   <path class="fil4" d="M113 120l0 -57c16,0 29,13 29,29 0,15 -13,28 -29,28zm0 0z"/>
   <path class="fil5" d="M128 92c0,2 -3,4 -5,4l-10 0c-2,0 -5,-2 -5,-4l0 -10c0,-3 3,-5 5,-5 3,0 5,2 5,5l0 5 5 0c2,0 5,2 5,5zm0 0z"/>
   <path class="fil6" d="M141 73c-6,-9 -16,-15 -28,-15 0,0 -1,0 -2,0 -17,1 -31,16 -31,34 0,18 15,33 33,33 19,0 34,-15 34,-33 0,-7 -2,-14 -6,-19zm-28 42c-13,0 -24,-10 -24,-23 0,-14 11,-24 24,-24 13,0 24,10 24,24 0,13 -11,23 -24,23zm0 0z"/>
   <path class="fil7" d="M123 96l-10 0 0 -19c3,0 5,2 5,5l0 5 5 0c2,0 5,2 5,5 0,2 -3,4 -5,4l0 0zm0 0z"/>
   <path class="fil8" d="M147 92c0,18 -15,33 -34,33l0 -10c13,0 24,-10 24,-23 0,-14 -11,-24 -24,-24l0 -10c19,0 34,15 34,34l0 0zm0 0z"/>
  </g>
 </g>
</svg>
