<?xml version="1.0" encoding="UTF-8"?>
<!DOCTYPE svg PUBLIC "-//W3C//DTD SVG 1.1//EN" "http://www.w3.org/Graphics/SVG/1.1/DTD/svg11.dtd">
<!-- Creator: CorelDRAW X7 -->
<svg xmlns="http://www.w3.org/2000/svg" xml:space="preserve" width="41.8931mm" height="35.8246mm" version="1.1" style="shape-rendering:geometricPrecision; text-rendering:geometricPrecision; image-rendering:optimizeQuality; fill-rule:evenodd; clip-rule:evenodd"
viewBox="0 0 146 125"
 xmlns:xlink="http://www.w3.org/1999/xlink">
 <defs>
  <style type="text/css">
   <![CDATA[
    .fil0 {fill:#58D7F0}
    .fil2 {fill:#66757F}
    .fil1 {fill:#CCD6DD}
    .fil4 {fill:#D1403F}
    .fil3 {fill:#E24C4B}
    .fil5 {fill:white}
   ]]>
  </style>
 </defs>
 <g id="Camada_x0020_1">
  <metadata id="CorelCorpID_0Corel-Layer"/>
  <g id="_2393753235216">
   <g>
    <path class="fil0" d="M10 87c7,-1 36,-3 36,-3 0,0 8,28 10,35 1,6 -6,7 -10,5 -3,-3 -16,-17 -16,-17 0,0 -18,-7 -21,-10 -4,-3 -5,-9 1,-10z"/>
    <path class="fil0" d="M8 34c9,-1 80,-11 80,-11 0,0 16,71 18,80 2,10 -7,15 -13,2 -5,-12 -26,-51 -26,-51 0,0 -47,-7 -57,-7 -14,-1 -12,-11 -2,-13z"/>
   </g>
   <path class="fil1" d="M80 12c5,-8 21,-14 24,-11 4,2 4,19 -2,26 -5,8 -50,69 -50,69 0,0 -19,18 -24,14 -6,-4 5,-27 5,-27 0,0 41,-64 47,-71z"/>
   <g>
    <path class="fil2" d="M49 80c0,0 2,1 -10,18 -12,17 -14,16 -14,16 0,0 -2,-1 10,-18 12,-17 14,-16 14,-16z"/>
    <path class="fil2" d="M87 14c5,-1 10,2 11,8l3 -1c0,-1 0,-2 0,-3 -1,-5 -6,-9 -12,-8 -1,0 -2,1 -3,1l1 3z"/>
   </g>
  </g>
  <g id="_2393753237584">
   <circle class="fil3" cx="113" cy="91" r="33"/>
   <path class="fil4" d="M146 91c0,18 -15,33 -33,33 -11,0 -20,-4 -26,-12 5,5 13,7 21,7 18,0 33,-15 33,-33 0,-8 -3,-15 -7,-21 7,6 12,16 12,26z"/>
   <path class="fil5" d="M128 106c-1,2 -3,2 -5,0l-10 -10 -11 10c-1,2 -3,2 -4,0 -2,-1 -2,-3 0,-4l10 -11 -10 -10c-2,-2 -2,-4 0,-5 1,-1 3,-1 4,0l11 11 10 -11c2,-1 4,-1 5,0 1,1 1,3 0,5l-11 10 11 11c1,1 1,3 0,4z"/>
   <g>
   </g>
   <g>
   </g>
   <g>
   </g>
   <g>
   </g>
   <g>
   </g>
   <g>
   </g>
   <g>
   </g>
   <g>
   </g>
   <g>
   </g>
   <g>
   </g>
   <g>
   </g>
   <g>
   </g>
   <g>
   </g>
   <g>
   </g>
   <g>
   </g>
  </g>
 </g>
</svg>
